<svg xmlns="http://www.w3.org/2000/svg" viewBox="0 0 603 182" fill="#ffffff">
  <path d="M374.1 142.3c-34.8 25.7-85.1 39.4-128.5 39.4-60.8 0-115.6-22.5-157.1-59.9-3.3-3-0.3-7 3.5-4.7 44.8 26 100.1 41.7 157.3 41.7 38.6 0 81-8 120.1-24.5 5.9-2.5 10.8 3.9 4.7 8z"/>
  <path d="M387.4 127.3c-4.4-5.7-29.3-2.7-40.5-1.4-3.4 0.4-3.9-2.5-0.9-4.7 19.8-13.9 52.4-9.9 56.2-5.2 3.8 4.7-1 37.3-19.6 52.9-2.9 2.4-5.6 1.1-4.3-2.1 4.2-10.5 13.5-34 9.1-39.5z"/>
  <path d="M348.1 22.5V7.3c0-2.3 1.8-3.9 3.9-3.9h69.3c2.2 0 4 1.6 4 3.9v13c0 2.2-1.9 5.1-5.2 9.7l-35.9 51.3c13.3-0.3 27.4 1.7 39.5 8.4 2.7 1.5 3.5 3.8 3.7 6v16.2c0 2.3-2.5 4.9-5.1 3.5-21.3-11.2-49.6-12.4-73.1 0.1-2.4 1.3-4.9-1.2-4.9-3.5v-15.4c0-2.5 0-6.7 2.5-10.5l41.6-59.7h-36.2c-2.2 0-4-1.6-4.1-3.9z"/>
  <path d="M124.9 98.1h-21.1c-2-0.1-3.6-1.6-3.8-3.5V7.5c0-2.1 1.8-3.8 4-3.8h19.7c2 0.1 3.7 1.7 3.8 3.6v11.4h0.4c5.1-11.5 14.7-16.9 27.6-16.9 13.2 0 21.4 5.4 27.3 16.9 5.1-11.5 16.6-16.9 29-16.9 8.8 0 18.4 3.6 24.3 11.7 6.7 9 5.3 22.1 5.3 33.5l0 47.2c0 2.1-1.8 3.8-4 3.8h-21.1c-2.1-0.1-3.7-1.8-3.7-3.8V51.4c0-4.5 0.4-15.8-0.6-20-1.5-7-6.2-9-12.3-9-5.1 0-10.4 3.4-12.5 8.8-2.2 5.4-2 14.5-2 20.2v43.2c0 2.1-1.8 3.8-4 3.8h-21.1c-2.1-0.1-3.7-1.8-3.7-3.8l0-43.2c0-11.9 2-29.4-12.9-29.4-15.1 0-14.5 17.1-14.5 29.4v43.2c0 2.1-1.8 3.8-4 3.8z"/>
  <path d="M464.8 1.8c31.3 0 48.3 26.9 48.3 61.1 0 33-18.7 59.3-48.3 59.3-30.8 0-47.5-26.9-47.5-60.4 0-33.7 16.9-60 47.5-60zm0.2 22.1c-15.6 0-16.6 21.3-16.6 34.5 0 13.3-0.2 41.6 16.4 41.6 16.4 0 17.2-22.9 17.2-36.8 0-9.2-0.4-20.2-3.2-28.9-2.4-7.6-7.2-10.4-13.8-10.4z"/>
  <path d="M553.4 98.1h-21c-2.1-0.1-3.7-1.8-3.7-3.8l0-87c0.2-2 1.9-3.5 4-3.5h19.6c1.8 0.1 3.4 1.4 3.8 3.1v13.3h0.4c6-12.4 14.3-18.3 29-18.3 9.4 0 18.6 3.4 24.5 12.6 5.5 8.5 5.5 22.9 5.5 33.2v47c-0.2 1.9-1.9 3.4-4 3.4h-21.2c-1.9-0.1-3.5-1.6-3.7-3.4V50.5c0-11.7 1.4-28.8-13.1-28.8-5.1 0-9.8 3.4-12.1 8.6-2.9 6.6-3.3 13.1-3.3 20.2v43.8c0 2.1-1.8 3.8-4 3.8z"/>
  <path d="M299.5 55.6c0 8.1 0.2 14.9-3.9 22.1-3.3 5.9-8.6 9.5-14.4 9.5-8 0-12.7-6.1-12.7-15.1 0-17.7 15.9-21 31-21v4.5zm21 50.9c-1.4 1.2-3.4 1.3-4.9 0.5-6.9-5.8-8.2-8.4-12-13.9-11.4 11.7-19.5 15.2-34.3 15.2-17.5 0-31.2-10.8-31.2-32.5 0-16.9 9.2-28.4 22.2-34.1 11.3-5 27.1-5.9 39.2-7.3v-2.7c0-5-0.4-11-2.5-15.3-1.9-3.9-6.8-7.7-13.5-7.7-9.2 0-17.4 4.7-19.4 14.5-0.4 2.2-2 4.3-4.2 4.4l-20.4-2.2c-2-0.4-4.2-2-3.6-5 5.4-28.5 31.2-37.1 54.3-37.1 11.8 0 27.3 3.2 36.6 12.1 11.8 11 10.7 25.7 10.7 41.7v37.8c0 11.4 4.7 16.4 9.2 22.5 1.6 2.2 1.9 4.8-0.1 6.4-5 4.2-13.9 11.9-18.8 16.3l-0.1-0.1z"/>
  <path d="M55.2 55.6c0 8.1 0.2 14.9-3.9 22.1-3.3 5.9-8.6 9.5-14.4 9.5-8 0-12.7-6.1-12.7-15.1 0-17.7 15.9-21 31-21v4.5zm21.1 50.9c-1.4 1.2-3.4 1.3-5 0.5-6.9-5.8-8.1-8.4-11.9-13.9-11.4 11.7-19.5 15.2-34.4 15.2C7.5 108.3-6.2 97.5-6.2 75.8c0-16.9 9.2-28.4 22.2-34.1 11.3-5 27.1-5.9 39.2-7.3v-2.7c0-5-0.4-11-2.5-15.3-1.9-3.9-6.8-7.7-13.5-7.7-9.2 0-17.3 4.7-19.4 14.5-0.4 2.2-2 4.3-4.2 4.4l-20.4-2.2c-2-0.4-4.1-2-3.6-5C-3 12 22.8 3.4 45.9 3.4c11.8 0 27.3 3.2 36.6 12.1 11.8 11 10.7 25.7 10.7 41.7v37.8c0 11.4 4.7 16.4 9.2 22.5 1.6 2.2 1.9 4.8-0.1 6.4-5 4.2-13.9 11.9-18.8 16.3l-0.1-0.1-7.1 0z"/>
</svg>