<svg xmlns="http://www.w3.org/2000/svg" viewBox="0 0 446 128" fill="#232F3E">
  <path d="M97.3 27.6c-.1-.8-.7-1.2-1.2-1.3-.5-.1-11.2-.2-11.2-.2s-7.4-7.2-8.2-8c-.8-.8-2.3-.5-2.9-.4-.1 0-1.6.5-4.1 1.3-2.5-7.1-6.8-13.6-14.4-13.6h-.7c-2.2-2.9-4.8-4.2-7.1-4.2-17.5 0-25.9 21.9-28.5 33-.6.2-1.2.4-1.8.5-5.5 1.7-5.7 1.9-6.4 7.1-.5 3.9-14.9 114.6-14.9 114.6l112.4 21.1 48.5-10.5s-33.6-111.4-33.8-112.7c0 0-2.9-17.3-25.7-26.7zM65.3 35.5c-2.1.6-4.4 1.4-6.9 2.1 0-4.7-.7-11.3-2.9-17 7.3 1.4 10.9 9.5 9.8 14.9zm-12.2 3.7c-4.7 1.4-9.8 3-14.9 4.6 1.4-5.5 4.2-11 7.6-14.6 1.3-1.3 3.1-2.8 5.2-3.6 2 4.3 2.2 10.4 2.1 13.6zm-8.1-22c1.7 0 3.1.6 4.4 1.7-2 1-3.9 2.5-5.7 4.5-4.5 4.8-7.9 12.2-9.3 19.4-4.3 1.3-8.4 2.6-12.2 3.8C25 34.9 32.8 17.2 45 17.2z"/>
  <path d="M96.1 26.3c-.5-.1-11.2-.2-11.2-.2s-7.4-7.2-8.2-8c-.3-.3-.7-.4-1.1-.5v108.9l48.5-10.5s-33.6-111.4-33.8-112.7c-.1-.8-.7-1.2-1.2-1.3-.6.1-1.1 1.5-1.1 1.5L75.7 53.3c-3.9 1.2-8.3 2.6-13 4-.2-7.9-1.3-19-6.9-26.5 5.3 1 9.2 5.3 11.2 10.8 1.7-5.9 4.9-11.6 9.6-15.8l.1.1c1.3-1.3 3.1-2.8 5.2-3.6l.1-.1c2.8-1 5.8-1.1 8.6.2 4.7 2.2 7.5 7.2 5.5 3.9z"/>
  <path d="M153.3 64.3c-2.3-1.2-3.5-2.3-3.5-3.7 0-1.8 1.6-3 4.1-3 2.9 0 5.5 1.2 5.5 1.2l2-6.3s-1.9-1.5-7.4-1.5c-7.7 0-13 4.4-13 10.6 0 3.5 2.5 6.2 5.8 8.1 2.7 1.5 3.6 2.6 3.6 4.2 0 1.7-1.3 3.1-3.9 3.1-3.8 0-7.3-2-7.3-2l-2.2 6.3s3.3 2.2 8.8 2.2c7.9 0 13.6-3.9 13.6-10.9 0-3.8-2.8-6.5-6.1-8.3z"/>
  <path d="M185.7 51c-3.8 0-6.8 1.8-9.1 4.6l-.1-.1 3.3-17.5h-8.6l-8.4 44.5h8.6l2.9-15.2c1.1-5.7 4.1-9.2 6.8-9.2 1.9 0 2.7 1.3 2.7 3.2 0 1.2-.1 2.6-.4 3.8l-3.3 17.5h8.6l3.4-18.1c.4-1.8.6-4 .6-5.4 0-4.9-2.5-8.1-7-8.1z"/>
  <path d="M213.2 51c-10.1 0-16.8 9.1-16.8 19.3 0 6.5 4 13.1 11.5 13.1 9.9 0 16.6-8.8 16.6-19.3 0-6-3.4-13.1-11.3-13.1zm-4 25.9c-2.9 0-4.1-2.5-4.1-5.5 0-4.8 2.5-14 7.1-14 3 0 4 2.7 4 5.3 0 5.1-2.5 14.2-7 14.2z"/>
  <path d="M246.3 51c-5.7 0-8.9 5-8.9 5h-.1l.5-4.5h-7.6c-.4 3.1-1.1 7.9-1.8 11.5l-6 31.6h8.6l2.4-12.7h.2s1.7 1.1 4.9 1.1c9.8 0 16.3-10.1 16.3-20.2 0-5.6-2.5-11.8-8.5-11.8zm-7.3 26c-2.2 0-3.4-1.2-3.4-1.2l1.4-7.6c1-5.3 3.7-8.8 6.6-8.8 2.5 0 3.4 2.4 3.4 4.6 0 5.4-3.4 13-8 13z"/>
  <path d="M270.7 37.5c-2.7 0-4.9 2.2-4.9 5 0 2.5 1.6 4.3 4.1 4.3h.1c2.7 0 5-1.8 5-5 0-2.5-1.7-4.3-4.3-4.3z"/>
  <path d="M259.6 82.5h8.6l5.7-30.6h-8.7z"/>
  <path d="M298.6 51.8h-6l.3-1.5c.5-2.8 2.1-5.3 4.9-5.3 1.5 0 2.6.4 2.6.4l1.7-6.7s-1.4-.7-4.4-.7c-2.9 0-5.8.8-8 2.7-2.8 2.4-4.1 5.8-4.8 9.2l-.2 1.4h-4l-1.2 6.4h4l-4.5 24.2h8.6l4.5-24.2h5.9l1.4-6.4-.8.5z"/>
  <path d="M321.7 51.9s-5.4 13.5-7.8 20.8h-.1c-.2-2.4-2.1-20.8-2.1-20.8h-9l5 26c.1.6.1 1-.2 1.5-1.1 2.2-3 4.3-5.1 5.8-1.7 1.3-3.6 2.1-5.1 2.7l2.4 7.3c1.9-.5 5.7-2.2 9-5.4 4.2-4.1 8.1-10.5 12.1-19.2l11.3-25.5h-8.4l-2 6.8z"/>
</svg>